<svg width="36" height="36" viewBox="0 0 36 36" fill="none" xmlns="http://www.w3.org/2000/svg">
<g clip-path="url(#clip0_0_1)">
<path d="M22.981 18.944C22.928 20.996 22.709 22.947 22.353 24.696C20.9085 24.8736 19.4553 24.972 18 24.991V18.999C19.888 18.996 21.539 18.977 22.981 18.944ZM21.294 5.353C22.201 5.514 23.075 5.724 23.905 5.964C22.8406 5.05277 21.6037 4.36511 20.268 3.942C20.63 4.34 20.973 4.81 21.294 5.353ZM12.669 11.187C14.1104 11.0814 15.5548 11.021 17 11.006V6.015C16.08 6.039 15.186 6.122 14.329 6.255C13.647 7.552 13.074 9.237 12.669 11.187ZM3.64199 13.736C3.29597 14.8792 3.09309 16.0609 3.03799 17.254C3.36699 17.35 4.04199 17.452 5.01899 17.549C5.05029 16.06 5.25841 14.5799 5.63899 13.14C4.56799 13.375 3.87599 13.592 3.64199 13.736ZM17 17.998V12.005C15.398 12.017 13.88 12.087 12.482 12.194C12.1629 14.089 12.0023 16.0073 12.002 17.929C13.508 17.97 15.179 17.994 17 17.998ZM13.706 5.353C13.9991 4.84876 14.3433 4.37594 14.733 3.942C13.3973 4.36511 12.1604 5.05277 11.096 5.964C11.925 5.724 12.799 5.514 13.706 5.353Z" fill="#7DC1FF"/>
<path d="M22.331 11.187C20.8896 11.0814 19.4452 11.021 18 11.006V6.015C18.92 6.039 19.814 6.122 20.671 6.255C21.353 7.552 21.926 9.237 22.331 11.187ZM5.73799 23.198C5.30521 21.6859 5.06464 20.1253 5.02199 18.553C4.09999 18.446 3.45499 18.328 3.01099 18.21C3.03099 19.63 3.24799 21.004 3.65099 22.298C3.85999 22.478 4.59399 22.817 5.73799 23.198ZM11.631 11.271C11.994 9.435 12.502 7.811 13.123 6.473C11.9151 6.72888 10.7292 7.07895 9.57599 7.52C8.55599 8.746 7.71899 10.205 7.10999 11.829C8.46999 11.599 10.027 11.41 11.631 11.271ZM7.71099 27.611C6.71199 27.118 6.01599 26.666 5.69499 26.389C5.08155 25.5364 4.56314 24.6193 4.14899 23.654C4.68499 23.896 5.34899 24.139 6.11899 24.375C6.54399 25.537 7.07899 26.622 7.71099 27.611ZM23.998 17.9C26.006 17.834 27.683 17.742 28.985 17.638C28.9559 16.0394 28.711 14.452 28.257 12.919C26.6991 12.6381 25.1296 12.4259 23.553 12.283C23.834 14.017 23.993 15.905 23.998 17.9ZM29.036 12.04C29.765 12.19 30.404 12.353 30.92 12.529C30.4735 11.4447 29.8965 10.4188 29.202 9.474C28.876 9.199 28.194 8.769 27.234 8.299C27.9891 9.46553 28.5945 10.7224 29.036 12.04ZM11.595 24.553C11.2489 22.6936 11.0559 20.8089 11.018 18.918C8.89199 18.857 7.26699 18.764 6.02499 18.655C6.08699 20.38 6.37699 22.031 6.87799 23.549C8.15999 23.914 9.76299 24.279 11.595 24.553Z" fill="#CAF5FF"/>
<path d="M20.715 29.658C19.85 29.789 18.941 29.87 18 29.892V25.99C19.3769 25.9693 20.752 25.8798 22.12 25.722C21.747 27.248 21.269 28.582 20.715 29.658ZM29.982 17.549C30.958 17.452 31.634 17.35 31.963 17.254C31.908 16.0609 31.7051 14.8792 31.359 13.736C31.125 13.592 30.433 13.375 29.362 13.14C29.734 14.534 29.946 16.013 29.982 17.549ZM14.921 30.743C15.554 31.656 16.259 32.245 17 32.431V30.893C16.305 30.8759 15.6112 30.8258 14.921 30.743Z" fill="#A8C1FF"/>
<path d="M31.989 18.21C31.9734 19.5964 31.7578 20.9732 31.349 22.298C31.139 22.479 30.406 22.817 29.261 23.198C29.682 21.737 29.93 20.178 29.977 18.553C30.9 18.446 31.545 18.328 31.989 18.21ZM23.191 25.589C22.856 27.041 22.423 28.335 21.917 29.444C23.139 29.1905 24.3386 28.8387 25.504 28.392C26.4047 27.2782 27.139 26.0396 27.684 24.715C26.2039 25.0902 24.7038 25.3819 23.191 25.589ZM13.654 30.554C12.7511 30.3952 11.8577 30.1862 10.978 29.928C12.0686 30.8905 13.3473 31.6158 14.733 32.058C14.3206 31.5967 13.9589 31.0924 13.654 30.554ZM20.079 30.743C19.3888 30.8258 18.695 30.8759 18 30.893V32.431C18.741 32.245 19.446 31.656 20.079 30.743Z" fill="#FDA0FF"/>
<path d="M14.285 29.658C13.731 28.582 13.253 27.248 12.88 25.723C14.218 25.876 15.606 25.972 17 25.991V29.893C16.091 29.8716 15.1842 29.7931 14.285 29.658ZM28.881 24.375C28.4697 25.5084 27.9359 26.5935 27.289 27.611C28.288 27.118 28.984 26.666 29.305 26.389C29.9181 25.5361 30.4365 24.6191 30.851 23.654C30.316 23.896 29.651 24.139 28.881 24.375ZM23.981 18.918C23.9441 20.809 23.7511 22.6937 23.404 24.553C24.9958 24.3191 26.571 23.9837 28.12 23.549C28.621 22.031 28.911 20.38 28.973 18.655C27.733 18.764 26.107 18.857 23.981 18.918ZM21.346 30.554C21.0411 31.0924 20.6794 31.5967 20.267 32.058C21.653 31.6164 22.9318 30.891 24.022 29.928C23.1424 30.1863 22.249 30.3953 21.346 30.554ZM35.5 3C34.8372 2.99921 34.2018 2.73556 33.7331 2.26689C33.2644 1.79822 33.0008 1.1628 33 0.5C33 0.367392 32.9473 0.240215 32.8536 0.146447C32.7598 0.0526784 32.6326 0 32.5 0C32.3674 0 32.2402 0.0526784 32.1465 0.146447C32.0527 0.240215 32 0.367392 32 0.5C32 1.878 30.878 3 29.5 3C29.3674 3 29.2402 3.05268 29.1465 3.14645C29.0527 3.24021 29 3.36739 29 3.5C29 3.63261 29.0527 3.75979 29.1465 3.85355C29.2402 3.94732 29.3674 4 29.5 4C30.878 4 32 5.122 32 6.5C32 6.63261 32.0527 6.75979 32.1465 6.85355C32.2402 6.94732 32.3674 7 32.5 7C32.6326 7 32.7598 6.94732 32.8536 6.85355C32.9473 6.75979 33 6.63261 33 6.5C33 5.122 34.122 4 35.5 4C35.6326 4 35.7598 3.94732 35.8536 3.85355C35.9473 3.75979 36 3.63261 36 3.5C36 3.36739 35.9473 3.24021 35.8536 3.14645C35.7598 3.05268 35.6326 3 35.5 3Z" fill="#C184FF"/>
<path d="M18 5.016V3.569C18.712 3.748 19.389 4.305 20.002 5.158C19.342 5.078 18.672 5.033 18 5.016ZM21.877 6.472C22.498 7.811 23.006 9.434 23.369 11.27C24.972 11.409 26.53 11.598 27.89 11.827C27.281 10.203 26.444 8.744 25.424 7.518C24.2703 7.07853 23.0845 6.72882 21.877 6.472ZM18 12.005V17.998C19.821 17.994 21.492 17.969 22.999 17.929C22.9985 16.0073 22.838 14.089 22.519 12.194C21.0152 12.0798 19.508 12.0168 18 12.005ZM17 24.991V18.999C15.3395 18.9982 13.6791 18.9799 12.019 18.944C12.072 20.996 12.291 22.947 12.647 24.696C14.003 24.862 15.464 24.971 17 24.991ZM11.447 12.283C9.60699 12.455 8.01099 12.685 6.74299 12.919C6.28839 14.4519 6.04349 16.0393 6.01499 17.638C7.31799 17.742 8.99499 17.834 11.002 17.9C11.007 15.905 11.166 14.017 11.447 12.283ZM14.998 5.158C15.658 5.078 16.328 5.033 17 5.016V3.569C16.288 3.748 15.611 4.305 14.998 5.158ZM5.96399 12.04C6.40545 10.7224 7.01087 9.46553 7.76599 8.299C6.80599 8.768 6.12399 9.199 5.79799 9.474C5.10379 10.4191 4.5269 11.4449 4.07999 12.529C4.69756 12.3282 5.32671 12.1649 5.96399 12.04ZM13.084 29.443C12.578 28.334 12.145 27.04 11.81 25.588C10.2974 25.3815 8.79766 25.0897 7.31799 24.714C7.86325 26.0385 8.59755 27.2771 9.49799 28.391C10.538 28.791 11.748 29.166 13.084 29.443ZM35.5 31C34.8372 30.9992 34.2018 30.7356 33.7331 30.2669C33.2644 29.7982 33.0008 29.1628 33 28.5C33 28.3674 32.9473 28.2402 32.8535 28.1464C32.7598 28.0527 32.6326 28 32.5 28C32.3674 28 32.2402 28.0527 32.1464 28.1464C32.0527 28.2402 32 28.3674 32 28.5C32 29.878 30.878 31 29.5 31C29.3674 31 29.2402 31.0527 29.1464 31.1464C29.0527 31.2402 29 31.3674 29 31.5C29 31.6326 29.0527 31.7598 29.1464 31.8536C29.2402 31.9473 29.3674 32 29.5 32C30.878 32 32 33.122 32 34.5C32 34.6326 32.0527 34.7598 32.1464 34.8536C32.2402 34.9473 32.3674 35 32.5 35C32.6326 35 32.7598 34.9473 32.8535 34.8536C32.9473 34.7598 33 34.6326 33 34.5C33 33.122 34.122 32 35.5 32C35.6326 32 35.7598 31.9473 35.8535 31.8536C35.9473 31.7598 36 31.6326 36 31.5C36 31.3674 35.9473 31.2402 35.8535 31.1464C35.7598 31.0527 35.6326 31 35.5 31Z" fill="#72D4FE"/>
<path d="M30.289 9.26C30.2254 9.14708 30.1474 9.04287 30.057 8.95C23.847 0.357998 11.16 0.346999 4.942 8.95C4.84 9.06 4.761 9.164 4.711 9.26C2.9093 11.8822 1.96288 14.9975 2.00156 18.1787C2.04023 21.36 3.06209 24.4514 4.927 27.029C4.94 27.041 4.95 27.065 4.964 27.078C11.177 35.634 23.818 35.645 30.038 27.078L30.084 27.039C31.9441 24.4571 32.9621 21.3639 32.9987 18.1819C33.0354 14.9999 32.0891 11.8841 30.289 9.26ZM29.305 26.389C28.984 26.666 28.287 27.117 27.289 27.611C27.9359 26.5935 28.4697 25.5084 28.881 24.375C29.552 24.1757 30.2099 23.9349 30.851 23.654C30.4365 24.6191 29.9181 25.5361 29.305 26.389ZM4.149 23.654C4.685 23.896 5.349 24.139 6.119 24.375C6.544 25.537 7.079 26.623 7.711 27.611C6.712 27.118 6.016 26.666 5.695 26.389C5.08193 25.5361 4.56354 24.6191 4.149 23.654ZM31.349 22.297C31.139 22.478 30.406 22.816 29.261 23.197C29.682 21.736 29.93 20.177 29.977 18.552C30.9 18.445 31.545 18.327 31.989 18.208C31.9735 19.5947 31.758 20.9719 31.349 22.297ZM3.038 17.254C3.1 16.037 3.297 14.856 3.642 13.736C3.876 13.592 4.568 13.375 5.639 13.14C5.25842 14.5799 5.05029 16.06 5.019 17.549C4.042 17.452 3.367 17.35 3.038 17.254ZM6.743 12.919C8.30092 12.6381 9.87044 12.4259 11.447 12.283C11.1513 14.1404 11.0025 16.0182 11.002 17.899C9.33789 17.8495 7.67513 17.7622 6.015 17.637C6.047 15.98 6.303 14.395 6.743 12.919ZM31.962 17.254C31.633 17.35 30.958 17.452 29.981 17.549C29.9497 16.06 29.7416 14.5799 29.361 13.14C30.431 13.375 31.123 13.592 31.358 13.736C31.703 14.856 31.9 16.038 31.962 17.254ZM28.985 17.638C27.682 17.742 26.005 17.834 23.998 17.9C23.9975 16.0192 23.8487 14.1414 23.553 12.284C25.393 12.456 26.989 12.686 28.257 12.92C28.697 14.395 28.953 15.98 28.985 17.638ZM18 6.015C18.92 6.039 19.814 6.122 20.671 6.255C21.353 7.553 21.926 9.238 22.331 11.187C20.8896 11.0813 19.4452 11.021 18 11.006V6.015ZM17 11.005C15.5548 11.0205 14.1104 11.0808 12.669 11.186C13.074 9.236 13.647 7.552 14.329 6.254C15.2133 6.11704 16.1055 6.03721 17 6.015V11.005ZM17 12.005V17.998C15.3334 17.9952 13.667 17.9722 12.001 17.929C12.005 15.903 12.178 13.963 12.481 12.194C13.9848 12.0798 15.492 12.0168 17 12.005ZM17 18.999V24.991C15.5447 24.9715 14.0916 24.8731 12.647 24.696C12.291 22.946 12.072 20.995 12.019 18.944C13.461 18.977 15.112 18.996 17 18.999ZM17 25.991V29.893C16.0909 29.8721 15.1841 29.7936 14.285 29.658C13.731 28.582 13.253 27.248 12.88 25.723C14.218 25.876 15.606 25.972 17 25.991ZM18 25.991C19.3769 25.9703 20.752 25.8808 22.12 25.723C21.746 27.248 21.268 28.582 20.715 29.658C19.85 29.789 18.941 29.87 18 29.892V25.991ZM18 24.991V18.999C19.888 18.996 21.539 18.977 22.981 18.944C22.928 20.996 22.709 22.947 22.353 24.696C20.9084 24.8731 19.4553 24.9715 18 24.991ZM18 17.998V12.005C19.602 12.017 21.12 12.087 22.518 12.194C22.821 13.962 22.994 15.902 22.998 17.929C21.492 17.97 19.821 17.994 18 17.998ZM23.369 11.271C23.006 9.435 22.498 7.811 21.877 6.473C23.0849 6.72888 24.2708 7.07895 25.424 7.52C26.444 8.746 27.281 10.205 27.89 11.829C26.391 11.5833 24.8828 11.3972 23.369 11.271ZM21.294 5.353C21.0009 4.84901 20.6571 4.37623 20.268 3.942C21.6037 4.36511 22.8406 5.05277 23.905 5.964C23.075 5.724 22.201 5.514 21.294 5.353ZM20.002 5.158C19.342 5.078 18.672 5.033 18 5.016V3.569C18.712 3.748 19.389 4.305 20.002 5.158ZM17 5.016C16.328 5.033 15.658 5.078 14.998 5.158C15.612 4.306 16.288 3.748 17 3.569V5.016ZM13.706 5.353C12.799 5.514 11.925 5.724 11.095 5.964C12.1594 5.05277 13.3963 4.36511 14.732 3.942C14.3429 4.37623 13.9991 4.84901 13.706 5.353ZM13.123 6.472C12.502 7.811 11.994 9.434 11.631 11.27C10.1173 11.3964 8.60913 11.5822 7.11 11.827C7.719 10.203 8.556 8.744 9.576 7.518C10.7296 7.07853 11.9155 6.72882 13.123 6.472ZM11.019 18.918C11.066 20.933 11.266 22.831 11.596 24.553C10.0042 24.3191 8.42902 23.9837 6.88 23.549C6.36647 21.966 6.07929 20.3184 6.027 18.655C7.267 18.764 8.893 18.857 11.019 18.918ZM11.809 25.589C12.144 27.041 12.577 28.335 13.083 29.444C11.861 29.1905 10.6614 28.8387 9.496 28.392C8.59534 27.2782 7.86103 26.0396 7.316 24.715C8.639 25.056 10.172 25.361 11.809 25.589ZM13.654 30.554C13.9589 31.0924 14.3206 31.5967 14.733 32.058C13.347 31.6164 12.0682 30.891 10.978 29.928C11.816 30.175 12.713 30.388 13.654 30.554ZM14.921 30.743C15.6112 30.8258 16.305 30.8759 17 30.893V32.431C16.259 32.245 15.554 31.656 14.921 30.743ZM18 30.893C18.695 30.8764 19.3888 30.8263 20.079 30.743C19.446 31.656 18.741 32.245 18 32.431V30.893ZM21.346 30.554C22.286 30.388 23.184 30.175 24.022 29.928C22.9314 30.8905 21.6527 31.6158 20.267 32.058C20.6794 31.5967 21.0411 31.0924 21.346 30.554ZM21.916 29.443C22.422 28.334 22.855 27.04 23.19 25.588C24.7026 25.3815 26.2023 25.0897 27.682 24.714C27.1367 26.0385 26.4024 27.2771 25.502 28.391C24.337 28.8379 23.1378 29.1898 21.916 29.443ZM23.405 24.553C23.734 22.831 23.934 20.933 23.982 18.918C26.108 18.857 27.733 18.764 28.975 18.655C28.9227 20.3184 28.6355 21.966 28.122 23.549C26.84 23.914 25.237 24.279 23.405 24.553ZM30.92 12.529C30.3023 12.3287 29.6732 12.1654 29.036 12.04C28.5945 10.7224 27.9891 9.46553 27.234 8.299C28.194 8.768 28.876 9.199 29.202 9.474C29.8966 10.4188 30.4735 11.4447 30.92 12.529ZM7.766 8.299C7.01167 9.46597 6.40631 10.7227 5.964 12.04C5.32664 12.1645 4.69747 12.3278 4.08 12.529C4.52652 11.4447 5.10344 10.4188 5.798 9.474C6.124 9.199 6.805 8.769 7.766 8.299ZM5.023 18.553C5.07 20.178 5.317 21.736 5.739 23.198C4.594 22.817 3.861 22.478 3.651 22.298C3.24269 20.9731 3.02715 19.5963 3.011 18.21C3.455 18.328 4.1 18.446 5.023 18.553ZM4.5 6C3.673 6 3 6.673 3 7.5C3 8.162 2 8.161 2 7.5C2 6.673 1.327 6 0.500001 6C-0.161999 6 -0.160999 5 0.500001 5C1.327 5 2 4.327 2 3.5C2 2.838 3 2.839 3 3.5C3 4.327 3.673 5 4.5 5C5.162 5 5.161 6 4.5 6Z" fill="#5865F2"/>
</g>
<defs>
<clipPath id="clip0_0_1">
<rect width="36" height="36" fill="white"/>
</clipPath>
</defs>
</svg>
