<svg width="512" height="512" viewBox="0 0 512 512" fill="none" xmlns="http://www.w3.org/2000/svg">
<g clip-path="url(#clip0_0_1)">
<path d="M512 0H0V512H512V0Z" fill="#1D252B"/>
<path fill-rule="evenodd" clip-rule="evenodd" d="M290.72 157.6C285.242 157.6 280.8 153.158 280.8 147.68C280.8 125.764 298.564 108 320.48 108H330.4C357.794 108 380 130.206 380 157.6V211.937C380 221.155 370.298 227.149 362.055 223.027L357.819 220.909C341.014 212.507 330.4 195.333 330.4 176.545V157.6H290.72ZM295.68 356C301.158 356 305.6 351.558 305.6 346.08C305.6 324.164 287.836 306.4 265.92 306.4H256C214.909 306.4 181.6 273.091 181.6 232V167.52C181.6 162.042 177.158 157.6 171.68 157.6C149.764 157.6 132 175.364 132 197.28V232C132 300.483 187.517 356 256 356H295.68Z" fill="#DEF1FF"/>
<path d="M181 392.74C181 399.51 175.514 405 168.75 405H156.5C142.969 405 132 394.022 132 380.479V351.276C132 342.161 141.584 336.235 149.728 340.31L153.913 342.404C170.514 350.712 181 367.692 181 386.269V392.74Z" fill="#58B9FF"/>
<path d="M347.048 405C337.949 405 330.571 397.575 330.571 388.416V330.375C330.571 289.16 297.378 255.75 256.429 255.75H239.952C221.754 255.75 207 240.9 207 222.584C207 213.425 214.377 206 223.477 206H256.429C324.675 206 380 261.685 380 330.375V371.834C380 390.15 365.246 405 347.048 405Z" fill="#58B9FF"/>
</g>
<defs>
<clipPath id="clip0_0_1">
<rect width="512" height="512" fill="white"/>
</clipPath>
</defs>
</svg>
